<svg xmlns="http://www.w3.org/2000/svg" width="20" height="20" viewBox="0 0 24 24" fill="none">
  <!-- 3DS Console (White) -->
  <rect x="3" y="1" width="18" height="10" rx="1.5" stroke="white" stroke-width="1.5" fill="white" opacity="0.1"/>
  <rect x="5" y="2.5" width="14" height="7" rx="0.5" fill="white" opacity="0.12"/>
  <line x1="5" y1="2.5" x2="5" y2="9.5" stroke="white" stroke-width="0.5" opacity="0.3"/>
  <line x1="19" y1="2.5" x2="19" y2="9.5" stroke="white" stroke-width="0.5" opacity="0.3"/>
  <line x1="3" y1="11.5" x2="21" y2="11.5" stroke="white" stroke-width="1.2" opacity="0.4"/>
  <rect x="2" y="12" width="20" height="11" rx="2" stroke="white" stroke-width="1.5" fill="white" opacity="0.1"/>
  <rect x="7" y="13.5" width="10" height="6" rx="0.5" fill="white" opacity="0.12"/>
  <circle cx="5" cy="15" r="1.5" stroke="white" stroke-width="0.8" fill="white" opacity="0.1"/>
  <circle cx="5" cy="15" r="0.5" fill="white"/>
  <rect x="3.8" y="19" width="2" height="0.6" rx="0.2" fill="white" opacity="0.6"/>
  <rect x="4.5" y="18.3" width="0.6" height="2" rx="0.2" fill="white" opacity="0.6"/>
  <circle cx="19" cy="14.5" r="0.6" fill="white"/>
  <circle cx="20.3" cy="15.8" r="0.6" fill="white"/>
  <circle cx="19" cy="17.1" r="0.6" fill="white"/>
  <circle cx="17.7" cy="15.8" r="0.6" fill="white"/>
</svg>
