<svg xmlns="http://www.w3.org/2000/svg" width="20" height="20" viewBox="0 0 24 24" fill="none">
  <!-- N64 Console -->
  <path d="M4 6c0-1.1.9-2 2-2h12c1.1 0 2 .9 2 2v9c0 2-2 3-4 3H8c-2 0-4-1-4-3V6z" stroke="white" stroke-width="1.5" fill="white" opacity="0.1"/>
  <rect x="8" y="6" width="8" height="3" rx="0.5" stroke="white" stroke-width="1" fill="none"/>
  <rect x="9.5" y="10" width="5" height="2.5" rx="0.5" stroke="white" stroke-width="0.8" fill="none" opacity="0.8"/>
  <circle cx="6.5" cy="14" r="1.2" fill="white" opacity="0.6"/>
  <circle cx="17.5" cy="14" r="1.2" fill="white" opacity="0.6"/>
  <rect x="6" y="18" width="1.5" height="1" fill="white" opacity="0.4"/>
  <rect x="9.5" y="18" width="1.5" height="1" fill="white" opacity="0.4"/>
  <rect x="13" y="18" width="1.5" height="1" fill="white" opacity="0.4"/>
  <rect x="16.5" y="18" width="1.5" height="1" fill="white" opacity="0.4"/>
</svg>
